<svg xmlns="http://www.w3.org/2000/svg" version="1.1" xmlns:xlink="http://www.w3.org/1999/xlink" xmlns:svgjs="http://svgjs.com/svgjs" width="512" height="512" x="0" y="0" viewBox="0 0 512 512" style="enable-background:new 0 0 512 512" xml:space="preserve" class=""><g><g xmlns="http://www.w3.org/2000/svg" id="menu-Bold"><path id="menu-Bold-2" d="m42.667 106.667a21.328 21.328 0 0 1 21.333-21.334h277.333a21.334 21.334 0 1 1 0 42.667h-277.333a21.328 21.328 0 0 1 -21.333-21.333zm405.333 128h-384a21.333 21.333 0 0 0 0 42.666h384a21.333 21.333 0 1 0 0-42.666zm-192 149.333h-192a21.334 21.334 0 0 0 0 42.667h192a21.334 21.334 0 0 0 0-42.667z" data-name="menu-Bold" fill="#000000" data-original="#000000" class=""></path></g></g></svg>    